# xmcd
#
# Track frame offsets: 
#        150
#        15215
#        31976
#        58357
#        74120
#        87536
#        123281
#        146882
#        167411
#        206092
#        236913
#        258938
#        300293
#        331804
#
# Disc length: 4694 seconds
#
# Revision: 0
# Processed by: cddbd v1.5.2PL0 Copyright (c) Steve Scherf et al.
# Submitted via: ExactAudioCopy v1.0b3
#
DISCID=c612540e
DTITLE=Gary Moore - Live At Bush Hall 2007
DYEAR=2014
DGENRE=Blues
TTITLE0=If The Devil Made Whiskey (Live At Bush Hall London 2007)
TTITLE1=Thirty Days (Live At Bush Hall London 2007)
TTITLE2=Trouble At Home (Live At Bush Hall London 2007)
TTITLE3=Hard Times (Live At Bush Hall London 2007)
TTITLE4=Eyesight To The Blind (Live At Bush Hall London 2007)
TTITLE5=I Had A Dream (Live At Bush Hall London 2007)
TTITLE6=Too Tired (Live At Bush Hall London 2007)
TTITLE7=Gary's Blues 1 (Live At Bush Hall London 2007)
TTITLE8=Don't Believe A Word (Live At Bush Hall London 2007)
TTITLE9=Still Got The Blues (Live At Bush Hall London 2007)
TTITLE10=Walking By Myself (Live At Bush Hall London 2007)
TTITLE11=The Blues Is Alright (Live At Bush Hall London 2007)
TTITLE12=Sundown (Live At Bush Hall London 2007)
TTITLE13=Parisienne Walkways (Live At Bush Hall London 2007) (Japanese
TTITLE13=Bonus Track)
EXTD=
EXTT0=
EXTT1=
EXTT2=
EXTT3=
EXTT4=
EXTT5=
EXTT6=
EXTT7=
EXTT8=
EXTT9=
EXTT10=
EXTT11=
EXTT12=
EXTT13=
PLAYORDER=
